
<svg mexport="1" xmlns="http://www.w3.org/2000/svg" xmlns:xlink="http://www.w3.org/1999/xlink" width="20" height="20" viewBox="0 0 20 20">
	<defs>
		<clipPath id="clipPath1802:6882:0">
			<path d="M0 0L20 0L20 20L0 20L0 0Z" fill-rule="nonzero" transform="matrix(1 0 0 1 0 0)"/>
		</clipPath>
	</defs>
	<g clip-path="url(#clipPath1802:6882:0)">
		<path d="M11.119 1.27266C10.3588 0.451953 9.2971 0 8.12522 0C6.9471 0 5.88186 0.449219 5.12522 1.26484C4.36038 2.08945 3.98772 3.21016 4.07522 4.42031C4.24866 6.80781 6.06546 8.75 8.12522 8.75C10.185 8.75 11.9987 6.8082 12.1748 4.42109C12.2635 3.22187 11.8885 2.10352 11.119 1.27266ZM15.0002 17.5L1.25022 17.5C1.06798 17.5024 0.894073 17.4655 0.728491 17.3893C0.562909 17.3132 0.421715 17.2051 0.304911 17.0652C0.0510046 16.7617 -0.0513391 16.3473 0.0244421 15.9281C0.35413 14.0992 1.38304 12.5629 3.00022 11.4844C4.43694 10.527 6.25686 10 8.12522 10C9.99358 10 11.8135 10.5273 13.2502 11.4844C14.8674 12.5625 15.8963 14.0988 16.226 15.9277C16.3018 16.3469 16.1994 16.7613 15.9455 17.0648C15.8288 17.2048 15.6876 17.3129 15.522 17.3891C15.3564 17.4654 15.1825 17.5023 15.0002 17.5Z" fill-rule="nonzero" transform="matrix(1 0 0 1 1.87478 1.25)" fill="rgb(59, 130, 246)"/>
	</g>
</svg>
