
<svg mexport="1" xmlns="http://www.w3.org/2000/svg" xmlns:xlink="http://www.w3.org/1999/xlink" width="64" height="64" viewBox="0 0 64 64">
	<defs>
		<clipPath id="clipPath0:0:0">
			<path d="M0 0L64 0L64 64L0 64L0 0Z" fill-rule="nonzero" transform="matrix(1 0 0 1 0 0)"/>
		</clipPath>
	</defs>
	<g clip-path="url(#clipPath0:0:0)">
		<path d="M26.6667 17.3333C29.244 17.3333 31.4439 18.2446 33.2663 20.067C35.0888 21.8895 36 24.0893 36 26.6667C36 29.244 35.0888 31.4439 33.2663 33.2663C31.4439 35.0888 29.244 36 26.6667 36C24.0893 36 21.8895 35.0888 20.067 33.2663C18.2446 31.4439 17.3333 29.244 17.3333 26.6667C17.3333 24.0893 18.2446 21.8895 20.067 20.067C21.8895 18.2446 24.0893 17.3333 26.6667 17.3333ZM26.6667 0C19.3029 0 13.0175 2.6035 7.81049 7.81049C2.6035 13.0175 0 19.3029 0 26.6667C-2.11928e-07 34.0305 2.6035 40.3159 7.81049 45.5229C13.0175 50.7298 19.3029 53.3333 26.6667 53.3333C34.0305 53.3333 40.3159 50.7298 45.5229 45.5228C50.7298 40.3159 53.3333 34.0305 53.3333 26.6667C53.3333 19.3029 50.7298 13.0175 45.5228 7.81048C40.3159 2.60349 34.0305 0 26.6667 0ZM26.6667 5.33333C32.5577 5.33333 37.586 7.41613 41.7516 11.5817C45.9172 15.7473 48 20.7756 48 26.6667C48 32.5577 45.9172 37.586 41.7516 41.7516C37.586 45.9172 32.5577 48 26.6667 48C20.7756 48 15.7473 45.9172 11.5817 41.7516C7.41613 37.586 5.33333 32.5577 5.33333 26.6667C5.33333 20.7756 7.41613 15.7473 11.5817 11.5817C15.7473 7.41613 20.7756 5.33333 26.6667 5.33333Z" fill-rule="nonzero" transform="matrix(1 0 0 1 5.33333 5.33333)" fill="rgb(255, 255, 255)"/>
	</g>
</svg>
