
<svg mexport="1" xmlns="http://www.w3.org/2000/svg" xmlns:xlink="http://www.w3.org/1999/xlink" width="32" height="32" viewBox="0 0 32 32">
	<defs>
		<clipPath id="clipPath0:0:0">
			<path d="M0 0L32 0L32 32L0 32L0 0Z" fill-rule="nonzero" transform="matrix(1 0 0 1 0 0)"/>
		</clipPath>
	</defs>
	<g clip-path="url(#clipPath0:0:0)">
		<path d="M19.6095 -0.942809C19.0888 -1.4635 18.2446 -1.4635 17.7239 -0.942809L5.33333 11.4477L0.942809 7.05719C0.422115 6.5365 -0.422114 6.5365 -0.942809 7.05719C-1.4635 7.57789 -1.4635 8.42211 -0.942809 8.94281L4.39052 14.2761Q4.43684 14.3225 4.48748 14.364Q4.53811 14.4056 4.59257 14.442Q4.64704 14.4784 4.7048 14.5092Q4.76257 14.5401 4.82309 14.5652Q4.88361 14.5902 4.94629 14.6093Q5.00897 14.6283 5.07321 14.641Q5.13746 14.6538 5.20264 14.6602Q5.26783 14.6667 5.33333 14.6667Q5.39884 14.6667 5.46402 14.6602Q5.52921 14.6538 5.59345 14.641Q5.6577 14.6283 5.72038 14.6093Q5.78306 14.5902 5.84358 14.5652Q5.90409 14.5401 5.96186 14.5092Q6.01963 14.4784 6.07409 14.442Q6.12856 14.4056 6.17919 14.364Q6.22983 14.3225 6.27614 14.2761L19.6095 0.942809C20.1302 0.422114 20.1302 -0.422115 19.6095 -0.942809Z" fill-rule="evenodd" transform="matrix(1 0 0 1 6.66667 9.33333)" fill="rgb(255, 255, 255)"/>
	</g>
</svg>
