
<svg mexport="1" xmlns="http://www.w3.org/2000/svg" xmlns:xlink="http://www.w3.org/1999/xlink" width="24" height="24" viewBox="0 0 24 24">
	<defs>
		<clipPath id="clipPath0:0:0">
			<path d="M0 0L24 0L24 24L0 24L0 0Z" fill-rule="nonzero" transform="matrix(1 0 0 1 0 0)"/>
		</clipPath>
	</defs>
	<g clip-path="url(#clipPath0:0:0)">
		<path d="M12 7.79997C13.1598 7.79997 14.1497 8.21006 14.9698 9.03014C15.7899 9.85026 16.2 10.8402 16.2 12C16.2 13.1598 15.7899 14.1497 14.9698 14.9698C14.1497 15.7899 13.1598 16.2 12 16.2C10.8402 16.2 9.85026 15.7899 9.03014 14.9698C8.21006 14.1497 7.79997 13.1598 7.79997 12C7.79997 10.8402 8.21006 9.85026 9.03014 9.03014C9.85026 8.21006 10.8402 7.79997 12 7.79997ZM12 0C8.68629 0 5.85787 1.17157 3.51472 3.51472C1.17157 5.85787 0 8.68629 0 12C-9.53675e-08 15.3137 1.17157 18.1421 3.51472 20.4853C5.85787 22.8284 8.68629 24 12 24C15.3137 24 18.1421 22.8284 20.4853 20.4852C22.8284 18.1421 24 15.3137 24 12C24 8.68629 22.8284 5.85787 20.4852 3.51471C18.1421 1.17157 15.3137 0 12 0ZM12 2.4C14.6509 2.4 16.9137 3.33725 18.7882 5.21176C20.6627 7.08628 21.6 9.34901 21.6 12C21.6 14.6509 20.6627 16.9137 18.7882 18.7882C16.9137 20.6627 14.6509 21.6 12 21.6C9.34901 21.6 7.08628 20.6627 5.21176 18.7882C3.33725 16.9137 2.4 14.6509 2.4 12C2.4 9.34901 3.33725 7.08628 5.21176 5.21176C7.08628 3.33725 9.34901 2.4 12 2.4Z" fill-rule="nonzero" transform="matrix(1 0 0 1 5.95808e-05 -1.8239e-05)" fill="rgb(255, 255, 255)"/>
	</g>
</svg>
