
<svg mexport="1" xmlns="http://www.w3.org/2000/svg" xmlns:xlink="http://www.w3.org/1999/xlink" width="24" height="24" viewBox="0 0 24 24">
	<defs>
		<clipPath id="clipPath1802:7644:0">
			<path d="M0 0L24 0L24 24L0 24L0 0Z" fill-rule="nonzero" transform="matrix(1 0 0 1 0 0)"/>
		</clipPath>
	</defs>
	<g clip-path="url(#clipPath1802:7644:0)">
		<path d="M18 8L18 6L16 6L16 3L13 0L11 2L9 0L7 2L5 0L2 3L2 6L0 6L0 8L2 8L2 10L0 10L0 12L2 12L2 16L16 16L16 12L18 12L18 10L16 10L16 8L18 8ZM13 2.83L14 3.83L14 6L12 6L12 3.83L12.41 3.42L13 2.83ZM9 2.83L9.59 3.42L10 3.83L10 6L8 6L8 3.83L8.41 3.42L9 2.83ZM8 10L8 8L10 8L10 10L8 10ZM10 12L10 14L8 14L8 12L10 12ZM4 3.83L5 2.83L5.59 3.42L6 3.83L6 6L4 6L4 3.83ZM4 8L6 8L6 10L4 10L4 8ZM4 12L6 12L6 14L4 14L4 12ZM14 14L12 14L12 12L14 12L14 14ZM14 10L12 10L12 8L14 8L14 10Z" fill-rule="nonzero" transform="matrix(1 0 0 1 3 4)" fill="rgb(59, 73, 246)"/>
	</g>
</svg>
