
<svg mexport="1" xmlns="http://www.w3.org/2000/svg" xmlns:xlink="http://www.w3.org/1999/xlink" width="24" height="24" viewBox="0 0 24 24">
	<defs>
		<clipPath id="clipPath1802:7651:0">
			<path d="M0 0L24 0L24 24L0 24L0 0Z" fill-rule="nonzero" transform="matrix(1 0 0 1 0 0)"/>
		</clipPath>
	</defs>
	<g clip-path="url(#clipPath1802:7651:0)">
		<path d="M6.75 0.75Q5.52264 0.75 4.40332 1.20073Q3.32511 1.63489 2.49453 2.42519Q1.66797 3.21168 1.21591 4.22804Q0.75 5.27555 0.75 6.42188Q0.75 8.87084 3.11265 13.1372Q4.63106 15.8791 6.75516 18.7486Q6.75549 18.749 6.75 18.749Q6.74451 18.749 6.74128 18.7535Q8.86902 15.8802 10.3874 13.1388Q12.75 8.87295 12.75 6.42187Q12.75 5.27555 12.2841 4.22804Q11.832 3.21168 11.0055 2.42519Q10.1749 1.63489 9.09668 1.20073Q7.97736 0.75 6.75 0.75L6.75 0.75ZM6.75 -0.75Q8.26802 -0.75 9.65698 -0.190701Q11.0012 0.350568 12.0395 1.33852Q13.0816 2.33015 13.6546 3.61844Q14.25 4.957 14.25 6.42187Q14.25 9.26059 11.6995 13.8655Q10.1333 16.6935 7.95403 19.6362Q7.50797 20.249 6.75 20.249Q5.99204 20.249 5.54953 19.6411Q3.36668 16.6922 1.80043 13.8639Q-0.75 9.25845 -0.75 6.42188Q-0.75 4.957 -0.154633 3.61844Q0.418374 2.33015 1.46055 1.33852Q2.49884 0.350568 3.84302 -0.190702Q5.23198 -0.75 6.75 -0.75L6.75 -0.75Z" fill-rule="nonzero" transform="matrix(1 0 0 1 5.25 2.25)" fill="rgb(236, 161, 90)"/>
		<circle cx="2.25" cy="2.25" r="2.25" stroke-width="1.5" transform="matrix(1 0 0 1 9.75 6.75)" stroke="rgb(236, 161, 90)" fill="transparent"/>
	</g>
</svg>
