
<svg mexport="1" xmlns="http://www.w3.org/2000/svg" xmlns:xlink="http://www.w3.org/1999/xlink" width="20" height="20" viewBox="0 0 20 20">
	<defs>
		<clipPath id="clipPath1802:5548:0">
			<path d="M0 0L20 0L20 20L0 20L0 0Z" fill-rule="nonzero" transform="matrix(1 0 0 1 0 0)"/>
		</clipPath>
	</defs>
	<g clip-path="url(#clipPath1802:5548:0)">
		<path d="M17.3594 8.66974L0.674229 15.551L0.435937 14.9732L0.701781 15.5388Q0.24179 15.755 -0.188782 15.485Q-0.619355 15.2149 -0.624962 14.7067L-0.625 10.2736Q-0.624999 9.93576 -0.409511 9.67559Q-0.194025 9.41541 0.137886 9.35249L9.8104 7.51658Q9.8208 7.51461 9.82202 7.51386Q9.81602 7.51755 9.81147 7.52351Q9.80935 7.52629 9.80916 7.52688Q9.81055 7.52261 9.81055 7.51656Q9.81055 7.5105 9.80916 7.50624Q9.80935 7.50682 9.81147 7.5096Q9.81602 7.51556 9.82202 7.51925Q9.8208 7.5185 9.81058 7.51656L0.137362 5.68059Q-0.194523 5.61724 -0.409591 5.3575Q-0.624657 5.09777 -0.625 4.76055L-0.625 0.335696Q-0.625 0.0982454 -0.513109 -0.112848Q-0.408811 -0.309614 -0.229438 -0.441406Q-0.0404262 -0.580282 0.187368 -0.614726Q0.443429 -0.653444 0.681875 -0.551382L17.3606 6.36659Q17.7122 6.51798 17.918 6.83074Q18.1239 7.1435 18.1239 7.51792Q18.1239 7.89234 17.918 8.2051Q17.7122 8.51786 17.3683 8.66597L17.3594 8.66974ZM16.8739 7.51792L16.8739 7.51792L16.8744 7.51809L16.8739 7.51792L16.8739 7.51792L16.8816 7.52121L0.19 0.597774Q0.365247 0.672785 0.510688 0.565923Q0.625 0.481933 0.625 0.335696L0.625 4.75928Q0.624886 4.64687 0.553198 4.5603Q0.481508 4.47372 0.37045 4.45252L10.0433 6.28842Q10.5212 6.37899 10.8053 6.75147Q11.0605 7.08604 11.0605 7.51656Q11.0605 7.94707 10.8053 8.28164Q10.5212 8.65413 10.0435 8.74465L0.370708 10.5806Q0.481342 10.5596 0.55317 10.4729Q0.625 10.3862 0.625 10.2736L0.624962 14.6929Q0.62304 14.5186 0.475419 14.426Q0.3278 14.3334 0.170094 14.4076Q0.183724 14.4011 0.197646 14.3954L16.8828 7.51415L16.8739 7.51792Z" fill-rule="nonzero" transform="matrix(1 0 0 1 1.25 2.49985)" fill="rgb(255, 255, 255)"/>
	</g>
</svg>
