
<svg mexport="1" xmlns="http://www.w3.org/2000/svg" xmlns:xlink="http://www.w3.org/1999/xlink" width="32" height="32" viewBox="0 0 32 32">
	<defs>
		<clipPath id="clipPath1802:6712:0">
			<path d="M0 0L32 0L32 32L0 32L0 0Z" fill-rule="nonzero" transform="matrix(1 0 0 1 0 0)"/>
		</clipPath>
	</defs>
	<g clip-path="url(#clipPath1802:6712:0)">
		<path d="M7.1765 30.0036C6.81981 30.0039 6.5267 29.8675 6.29717 29.5945C6.06763 29.3214 5.98366 29.0093 6.04525 28.6579L6.04525 28.6511L7.80212 19.0036L1.00025 19.0036C0.807584 19.0035 0.629777 18.9521 0.466826 18.8493C0.303875 18.7465 0.180901 18.6082 0.0979033 18.4343C0.0149053 18.2605 -0.0153211 18.0779 0.00722408 17.8865C0.0297693 17.6952 0.10161 17.5246 0.222746 17.3748L13.9209 0.441052C14.0811 0.237668 14.2865 0.103469 14.5371 0.0384563C14.7878 -0.0265569 15.0325 -0.00913789 15.2714 0.0907133C15.5103 0.190565 15.6946 0.352503 15.8244 0.576528C15.9542 0.800553 16.003 1.04102 15.9709 1.29793C15.9709 1.31668 15.9659 1.3348 15.9627 1.35355L14.1996 11.0036L21.0002 11.0036C21.1929 11.0036 21.3707 11.055 21.5337 11.1578C21.6966 11.2606 21.8196 11.3989 21.9026 11.5728C21.9856 11.7466 22.0158 11.9292 21.9933 12.1206C21.9707 12.3119 21.8989 12.4825 21.7777 12.6323L8.07775 29.5661C7.96872 29.7038 7.83517 29.8111 7.67712 29.8878C7.51906 29.9645 7.35219 30.0031 7.1765 30.0036Z" fill-rule="nonzero" transform="matrix(1 0 0 1 4.99975 0.996448)" fill="rgb(255, 255, 255)"/>
	</g>
</svg>
