
<svg mexport="1" xmlns="http://www.w3.org/2000/svg" xmlns:xlink="http://www.w3.org/1999/xlink" width="32" height="32" viewBox="0 0 32 32">
	<defs>
		<clipPath id="clipPath1802:6699:0">
			<path d="M0 0L32 0L32 32L0 32L0 0Z" fill-rule="nonzero" transform="matrix(1 0 0 1 0 0)"/>
		</clipPath>
	</defs>
	<g clip-path="url(#clipPath1802:6699:0)">
		<path d="M0 0L20 0L20 8L0 8L0 0Z" fill-rule="nonzero" transform="matrix(1 0 0 1 4 12)" fill="rgb(255, 255, 255)"/>
		<path d="M4 0C2.89543 0 1.95262 0.390524 1.17157 1.17157C0.390524 1.95262 0 2.89543 0 4L0 12C0 13.1046 0.390524 14.0474 1.17157 14.8284C1.95262 15.6095 2.89543 16 4 16L24 16C25.1046 16 26.0474 15.6095 26.8284 14.8284C27.6095 14.0474 28 13.1046 28 12L28 4C28 2.89543 27.6095 1.95262 26.8284 1.17157C26.0474 0.390524 25.1046 0 24 0L4 0ZM24 2C24.5523 2 25.0237 2.19526 25.4142 2.58579C25.8047 2.97631 26 3.44772 26 4L26 12C26 12.5523 25.8047 13.0237 25.4142 13.4142C25.0237 13.8047 24.5523 14 24 14L4 14C3.44772 14 2.97631 13.8047 2.58579 13.4142C2.19526 13.0237 2 12.5523 2 12L2 4C2 3.44772 2.19526 2.97631 2.58579 2.58579C2.97631 2.19526 3.44772 2 4 2L24 2ZM32 8C32 8.82843 31.7071 9.53553 31.1213 10.1213C30.5355 10.7071 29.8284 11 29 11L29 5C29.8284 5 30.5355 5.29289 31.1213 5.87868C31.7071 6.46447 32 7.17157 32 8Z" fill-rule="nonzero" transform="matrix(1 0 0 1 0 8)" fill="rgb(255, 255, 255)"/>
	</g>
</svg>
