
<svg mexport="1" xmlns="http://www.w3.org/2000/svg" xmlns:xlink="http://www.w3.org/1999/xlink" width="24" height="24" viewBox="0 0 24 24">
	<path d="M12 0C5.37258 0 0 5.37258 0 12L0 12.018C0 18.6454 5.35458 24 11.982 24L12 24C18.6274 24 24 18.6454 24 12.018L24 12C24 5.37258 18.6454 0 12.018 0L12 0Z" fill-rule="nonzero" transform="matrix(1 0 0 1 0 0)" fill="rgb(59, 130, 246)"/>
	<defs>
		<clipPath id="clipPath1802:6693:0">
			<path d="M0 0L16 0L16 16L0 16L0 0Z" fill-rule="nonzero" transform="matrix(1 0 0 1 4 4)"/>
		</clipPath>
	</defs>
	<g clip-path="url(#clipPath1802:6693:0)">
		<path d="M9.62371 -0.329252C9.80555 -0.537069 10.1214 -0.558128 10.3293 -0.376288C10.5371 -0.194449 10.5581 0.121436 10.3763 0.329252L3.37629 8.32925Q3.34386 8.36631 3.30482 8.39634Q3.26579 8.42636 3.22165 8.44819Q3.1775 8.47002 3.12995 8.48282Q3.0824 8.49562 3.03326 8.49889Q2.98412 8.50217 2.93529 8.49579Q2.88646 8.48942 2.83981 8.47364Q2.79316 8.45787 2.75048 8.43329Q2.70781 8.40872 2.67075 8.37629Q2.65822 8.36533 2.64645 8.35355L-0.353553 5.35355C-0.548814 5.15829 -0.548814 4.84171 -0.353553 4.64645C-0.158293 4.45119 0.158293 4.45119 0.353553 4.64645L2.97564 7.26854L9.62371 -0.329252Z" fill-rule="evenodd" transform="matrix(1 0 0 1 7 8)" fill="rgb(255, 255, 255)"/>
	</g>
</svg>
