
<svg mexport="1" xmlns="http://www.w3.org/2000/svg" xmlns:xlink="http://www.w3.org/1999/xlink" width="24" height="24" viewBox="0 0 24 24">
	<defs>
		<clipPath id="clipPath1802:5559:0">
			<path d="M0 0L24 0L24 24L0 24L0 0Z" fill-rule="nonzero" transform="matrix(1 0 0 1 0 0)"/>
		</clipPath>
	</defs>
	<g clip-path="url(#clipPath1802:5559:0)">
		<path d="M16 4L8 4C7.4477 4 7 4.44772 7 5L7 18L1 18C0.44772 18 0 17.5523 0 17L0 1C0 0.44772 0.44772 0 1 0L15 0C15.5523 0 16 0.44772 16 1L16 4ZM10 6L18 6C18.5523 6 19 6.44772 19 7L19 19C19 19.5523 18.5523 20 18 20L10 20C9.4477 20 9 19.5523 9 19L9 7C9 6.44772 9.4477 6 10 6Z" fill-rule="nonzero" transform="matrix(1 0 0 1 3 2)" fill="rgb(65, 105, 225)"/>
	</g>
</svg>
