
<svg mexport="1" xmlns="http://www.w3.org/2000/svg" xmlns:xlink="http://www.w3.org/1999/xlink" width="24" height="24" viewBox="0 0 24 24">
	<defs>
		<clipPath id="clipPath1802:7207:0">
			<path d="M0 0L24 0L24 24L0 24L0 0Z" fill-rule="nonzero" transform="matrix(1 0 0 1 0 0)"/>
		</clipPath>
	</defs>
	<g clip-path="url(#clipPath1802:7207:0)">
		<path d="M7 0C3.13 0 0 3.13 0 7C0 12.25 7 20 7 20C7 20 14 12.25 14 7C14 3.13 10.87 0 7 0ZM7 9.5C6.30988 9.49966 5.72089 9.25544 5.23302 8.76734C4.74515 8.27923 4.50122 7.69012 4.50122 7C4.50122 6.30988 4.74515 5.72077 5.23302 5.23266C5.72089 4.74456 6.30988 4.50034 7 4.5C7.69012 4.50034 8.27911 4.74456 8.76698 5.23267C9.25485 5.72077 9.49878 6.30988 9.49878 7C9.49878 7.69012 9.25485 8.27923 8.76698 8.76734C8.27911 9.25544 7.69012 9.49966 7 9.5Z" fill-rule="nonzero" transform="matrix(1 0 0 1 5 2)" fill="rgb(255, 255, 255)"/>
	</g>
</svg>
