
<svg mexport="1" xmlns="http://www.w3.org/2000/svg" xmlns:xlink="http://www.w3.org/1999/xlink" width="24" height="24" viewBox="0 0 24 24">
	<defs>
		<clipPath id="clipPath1802:5571:0">
			<path d="M0 0L24 0L24 24L0 24L0 0Z" fill-rule="nonzero" transform="matrix(1 0 0 1 0 0)"/>
		</clipPath>
	</defs>
	<g clip-path="url(#clipPath1802:5571:0)">
		<path d="M12.1685 11.71L13.5685 9.29C13.6585 9.14 13.6185 8.95 13.4885 8.84L12.0085 7.68C12.0385 7.46 12.0585 7.23 12.0585 7C12.0585 6.77 12.0385 6.54 12.0085 6.31L13.4885 5.15C13.6185 5.04 13.6585 4.85 13.5685 4.7L12.1685 2.28C12.0785 2.13 11.8985 2.07 11.7385 2.13L9.99854 2.83C9.63854 2.55 9.24854 2.32 8.81854 2.14L8.55854 0.29C8.54126 0.20671 8.49987 0.137928 8.43437 0.0836558C8.36887 0.0293835 8.29359 0.00149822 8.20854 0L5.40854 0C5.23854 0 5.08854 0.13 5.05854 0.3L4.79854 2.15C4.37854 2.33 3.97854 2.56 3.61854 2.84L1.87854 2.14C1.71854 2.08 1.53854 2.14 1.44854 2.29L0.0485387 4.71C-0.0414613 4.86 -0.00146127 5.05 0.128539 5.16L1.60854 6.32C1.57854 6.54 1.55854 6.77 1.55854 7C1.55854 7.23 1.57854 7.46 1.60854 7.69L0.128539 8.85C-0.00146151 8.96 -0.0414613 9.15 0.0485387 9.3L1.44854 11.72C1.53854 11.87 1.71854 11.93 1.87854 11.87L3.61854 11.17C3.97854 11.45 4.36854 11.68 4.79854 11.86L5.05854 13.71C5.08854 13.87 5.23854 14 5.40854 14L8.20854 14C8.37854 14 8.52854 13.87 8.55854 13.7L8.81854 11.85C9.23854 11.67 9.63854 11.44 9.99854 11.16L11.7385 11.86C11.8985 11.92 12.0785 11.86 12.1685 11.71ZM6.80854 9C5.70854 9 4.80854 8.1 4.80854 7C4.80854 5.9 5.70854 5 6.80854 5C7.90854 5 8.80854 5.9 8.80854 7C8.80854 8.1 7.90854 9 6.80854 9ZM19.9185 16.67L18.9585 15.93C18.9785 15.79 18.9985 15.64 18.9985 15.49C18.9985 15.34 18.9885 15.19 18.9585 15.05L19.9085 14.31C19.9885 14.24 20.0185 14.12 19.9585 14.02L19.0585 12.47C19.0085 12.37 18.8885 12.34 18.7785 12.37L17.6685 12.82C17.4385 12.64 17.1885 12.49 16.9085 12.38L16.7385 11.2C16.7344 11.1446 16.7123 11.0978 16.6721 11.0595C16.6319 11.0212 16.584 11.0014 16.5285 11L14.7385 11C14.6285 11 14.5285 11.08 14.5185 11.19L14.3485 12.37C14.0785 12.49 13.8185 12.63 13.5885 12.81L12.4785 12.36C12.4259 12.3402 12.3731 12.3398 12.3202 12.3587C12.2673 12.3776 12.2267 12.4114 12.1985 12.46L11.2985 14.01C11.2485 14.11 11.2585 14.23 11.3485 14.3L12.2985 15.04C12.2779 15.1859 12.2676 15.3326 12.2676 15.48C12.2676 15.6274 12.2779 15.7741 12.2985 15.92L11.3485 16.66C11.2685 16.73 11.2385 16.85 11.2985 16.95L12.1985 18.5C12.2485 18.6 12.3685 18.63 12.4785 18.6L13.5885 18.15C13.8185 18.33 14.0685 18.48 14.3485 18.59L14.5185 19.77C14.5385 19.88 14.6285 19.96 14.7385 19.96L16.5285 19.96C16.6385 19.96 16.7385 19.88 16.7485 19.77L16.9185 18.59C17.1885 18.47 17.4485 18.33 17.6685 18.15L18.7885 18.6C18.8885 18.64 19.0085 18.6 19.0685 18.5L19.9685 16.95C20.0285 16.86 19.9985 16.74 19.9185 16.67ZM15.6285 16.83C15.2556 16.8299 14.9373 16.6979 14.6737 16.4341C14.4101 16.1703 14.2784 15.8519 14.2785 15.479C14.2787 15.1061 14.4106 14.7878 14.6744 14.5242C14.9382 14.2606 15.2566 14.1289 15.6295 14.129C16.0025 14.1291 16.3207 14.2611 16.5843 14.5249C16.8479 14.7887 16.9797 15.1071 16.9795 15.48C16.9794 15.8529 16.8474 16.1712 16.5836 16.4348C16.3198 16.6984 16.0015 16.8301 15.6285 16.83Z" fill-rule="nonzero" transform="matrix(1 0 0 1 2.00146 2)" fill="rgb(127, 61, 255)"/>
	</g>
</svg>
