
<svg mexport="1" xmlns="http://www.w3.org/2000/svg" xmlns:xlink="http://www.w3.org/1999/xlink" width="30" height="30" viewBox="0 0 30 30">
	<defs>
		<clipPath id="clipPath1802:6872:0">
			<path d="M0 0L30 0L30 30L0 30L0 0Z" fill-rule="nonzero" transform="matrix(1 0 0 1 0 0)"/>
		</clipPath>
	</defs>
	<g clip-path="url(#clipPath1802:6872:0)">
		<path d="M2.7354 0.1072C2.7074 0.0732994 2.6739 0.0462002 2.6367 0.0275999C2.6353 0.0267997 2.6337 0.0266004 2.6319 0.0259003C2.5976 0.00940025 2.5607 0 2.5218 0C2.4828 0 2.4459 0.00940025 2.4119 0.0259003C2.4102 0.0266004 2.4087 0.0268006 2.407 0.0275999C2.3701 0.0462002 2.3364 0.0733003 2.3084 0.1072L0.0885004 2.7941C-0.0294998 2.9371 -0.0294998 3.1683 0.0885004 3.3109C0.206501 3.4537 0.397501 3.4537 0.5155 3.3109L2.22 1.2473L2.22 7.0376C2.22 7.2394 2.3552 7.403 2.5219 7.403C2.6888 7.403 2.8238 7.2393 2.8238 7.0376L2.8238 1.2473L4.5479 3.3339C4.6068 3.4053 4.684 3.4411 4.7611 3.4411C4.8382 3.4411 4.9157 3.4053 4.9748 3.3339C5.0926 3.1911 5.0926 2.9598 4.9748 2.8173L2.7354 0.1072Z" fill-rule="nonzero" transform="matrix(1 0 0 1 8.92285 13.3913)" fill="rgb(215, 149, 13)"/>
		<path d="M4.54803 3.9255L2.84313 5.9048L2.84313 0.3505C2.84313 0.157 2.70793 0 2.54133 0C2.37453 0 2.23933 0.157 2.23933 0.3505L2.23933 5.9048L0.515326 3.9032C0.397426 3.7663 0.206425 3.7663 0.0884253 3.9032C-0.0294748 4.0402 -0.0294748 4.2618 0.0884253 4.3988L2.32763 6.9984C2.35583 7.0307 2.38912 7.057 2.42613 7.0747C2.42773 7.0755 2.42952 7.0755 2.43112 7.0763C2.46512 7.0919 2.50202 7.1013 2.54112 7.1013C2.58012 7.1013 2.61712 7.0919 2.65122 7.0763C2.65282 7.0755 2.65422 7.0755 2.65592 7.0747C2.69312 7.057 2.72672 7.0309 2.75442 6.9984L4.97472 4.4208C5.09292 4.2841 5.09292 4.0622 4.97472 3.9255C4.85683 3.7884 4.66623 3.7884 4.54803 3.9255Z" fill-rule="nonzero" transform="matrix(1 0 0 1 13.9856 14.0266)" fill="rgb(215, 149, 13)"/>
		<path d="M14.6844 0C6.5744 0 0 6.5745 0 14.6845C0 22.7943 6.5744 29.3689 14.6844 29.3689C22.7942 29.3689 29.3688 22.7943 29.3688 14.6845C29.3688 6.5746 22.7942 0 14.6844 0ZM13.2223 25.4573L13.2216 25.4573C11.313 25.4573 9.4657 24.8163 8.02 23.6529C6.1455 22.1439 5.2473 20.2212 5.3491 17.9381C5.3881 17.0715 5.6936 16.2682 6.0296 15.4534C7.0439 12.9982 8.44 10.7225 9.5441 9.0138C10.2433 7.9311 10.9858 6.8514 11.7032 5.8069L12.1009 5.2284L12.1104 5.2152C12.2122 5.063 12.6097 4.5351 13.2415 4.5351C13.662 4.5351 14.0355 4.7595 14.3508 5.2026L14.5891 5.5418C16.381 8.1235 18.2473 10.937 19.7698 14.016C20.281 15.0508 20.7985 16.1626 21.0189 17.374C21.306 18.9464 20.9563 20.4898 19.9814 21.9631C18.5328 24.1509 16.0058 25.4573 13.2223 25.4573ZM22.6366 21.5698C21.5989 22.9103 20.1327 23.8423 18.4758 24.2717C19.5075 23.6714 20.3898 22.8471 21.0388 21.8363C21.9806 20.368 22.3042 18.8389 21.9988 17.2906C21.7639 16.0975 21.2375 15.0069 20.7179 13.9924C19.1712 10.9736 17.2892 8.2218 15.4835 5.6979L15.3249 5.4789C15.4383 5.3376 15.552 5.1954 15.6644 5.0553L16.0985 4.5145L16.1086 4.5022C16.2201 4.3598 16.6502 3.8689 17.2722 3.9151C17.6866 3.9458 18.0379 4.1942 18.316 4.6534L18.5261 5.0049C20.1022 7.6782 21.7345 10.5852 23.0088 13.7285C23.4369 14.7849 23.8651 15.9176 23.994 17.1266C24.1616 18.6958 23.7041 20.1904 22.6366 21.5698Z" fill-rule="nonzero" transform="matrix(1 0 0 1 0.519287 0.150221)" fill="rgb(215, 149, 13)"/>
	</g>
</svg>
