
<svg mexport="1" xmlns="http://www.w3.org/2000/svg" xmlns:xlink="http://www.w3.org/1999/xlink" width="24" height="19.2" viewBox="0 0 24 19.2">
	<defs>
		<clipPath id="clipPath1802:5565:0">
			<path d="M0 0L24 0L24 19.2L0 19.2L0 0Z" fill-rule="nonzero" transform="matrix(1 0 0 1 0 -3.05176e-05)"/>
		</clipPath>
	</defs>
	<g clip-path="url(#clipPath1802:5565:0)">
		<path d="M1.2 6.72L2.4 6.72L2.4 12.48L1.2 12.48C0.868465 12.4803 0.585482 12.3867 0.351051 12.1992C0.116619 12.0116 -0.000397084 11.7852 1.01231e-06 11.52L1.01231e-06 7.68C-0.000396968 7.41477 0.11662 7.18839 0.351051 7.00084C0.585482 6.81329 0.868465 6.71968 1.2 6.72ZM20.4 5.28L20.4 13.44C20.3993 13.97 20.1648 14.4223 19.6964 14.7971C19.2279 15.1718 18.6625 15.3595 18 15.36L6 15.36C5.33753 15.3595 4.77208 15.1718 4.30364 14.7971C3.8352 14.4223 3.60066 13.97 3.6 13.44L3.6 5.28C3.59973 4.61717 3.89253 4.05141 4.4784 3.58272C5.06426 3.11402 5.77146 2.87978 6.6 2.88L10.8 2.88L10.8 0.96C10.8 0.694903 10.9172 0.468629 11.1515 0.281177C11.3858 0.0937258 11.6686 0 12 0C12.3314 0 12.6142 0.0937258 12.8485 0.281177C13.0828 0.468629 13.2 0.694903 13.2 0.96L13.2 2.88L17.4 2.88C18.2285 2.87978 18.9357 3.11402 19.5216 3.58272C20.1075 4.05141 20.4003 4.61717 20.4 5.28ZM9.9 7.68C9.9 7.34863 9.75355 7.06579 9.46066 6.83147C9.16777 6.59716 8.81421 6.48 8.4 6.48C7.98579 6.48 7.63223 6.59716 7.33934 6.83147C7.04645 7.06579 6.9 7.34863 6.9 7.68C6.9 8.01137 7.04645 8.29421 7.33934 8.52853C7.63223 8.76284 7.98579 8.88 8.4 8.88C8.81423 8.88002 9.16779 8.76288 9.4607 8.52855C9.7536 8.29423 9.90003 8.01138 9.9 7.68ZM9.6 11.52L7.2 11.52L7.2 12.48L9.6 12.48L9.6 11.52ZM13.2 11.52L10.8 11.52L10.8 12.48L13.2 12.48L13.2 11.52ZM17.1 7.68C17.1 7.34863 16.9536 7.06579 16.6607 6.83147C16.3678 6.59716 16.0142 6.48 15.6 6.48C15.1858 6.48 14.8322 6.59716 14.5393 6.83147C14.2464 7.06579 14.1 7.34863 14.1 7.68C14.1 8.01137 14.2464 8.29421 14.5393 8.52853C14.8322 8.76284 15.1858 8.88 15.6 8.88C16.0142 8.88003 16.3678 8.76288 16.6607 8.52855C16.9536 8.29423 17.1 8.01138 17.1 7.68ZM16.8 11.52L14.4 11.52L14.4 12.48L16.8 12.48L16.8 11.52ZM24 7.68L24 11.52C24.0004 11.7852 23.8834 12.0116 23.649 12.1992C23.4145 12.3867 23.1315 12.4803 22.8 12.48L21.6 12.48L21.6 6.72L22.8 6.72C23.1315 6.71968 23.4145 6.8133 23.649 7.00084C23.8834 7.18839 24.0004 7.41477 24 7.68Z" fill-rule="nonzero" transform="matrix(1 0 0 1 0 1.91996)" fill="rgb(0, 200, 176)"/>
	</g>
</svg>
