
<svg mexport="1" xmlns="http://www.w3.org/2000/svg" xmlns:xlink="http://www.w3.org/1999/xlink" width="20" height="20" viewBox="0 0 20 20">
	<defs>
		<clipPath id="clipPath1802:6383:0">
			<path d="M0 0L20 0L20 20L0 20L0 0Z" fill-rule="nonzero" transform="matrix(1 0 0 1 0 0)"/>
		</clipPath>
	</defs>
	<g clip-path="url(#clipPath1802:6383:0)">
		<path d="M14.375 2.5L10.625 2.5L10.625 1.5625C10.625 1.13103 10.4725 0.762743 10.1674 0.457646C9.86226 0.152549 9.49397 0 9.0625 0L5.9375 0C5.50603 0 5.13774 0.152549 4.83265 0.457646C4.52755 0.762743 4.375 1.13103 4.375 1.5625L4.375 2.5L0.625 2.5C0.452411 2.5 0.305097 2.56102 0.183058 2.68306C0.0610193 2.8051 -9.93411e-08 2.95241 0 3.125C-9.93411e-08 3.29759 0.0610193 3.4449 0.183058 3.56694C0.305097 3.68898 0.452411 3.75 0.625 3.75L1.28906 3.75L2.03125 15.6609C2.08672 16.7098 2.89062 17.5 3.90625 17.5L11.0938 17.5C12.1145 17.5 12.9023 16.7273 12.9688 15.6641L13.7109 3.75L14.375 3.75C14.5476 3.75 14.6949 3.68898 14.8169 3.56694C14.939 3.4449 15 3.29759 15 3.125C15 2.95241 14.939 2.8051 14.8169 2.68306C14.6949 2.56102 14.5476 2.5 14.375 2.5ZM5.02227 15L5 15C4.83167 15.0001 4.68692 14.9417 4.56575 14.8249C4.44458 14.708 4.381 14.5655 4.375 14.3973L4.0625 5.64727C4.05623 5.4746 4.11195 5.32502 4.22965 5.19853C4.34736 5.07204 4.49254 5.00572 4.66522 4.99957C4.83789 4.99342 4.98743 5.04924 5.11384 5.16703C5.24025 5.28482 5.30647 5.43006 5.3125 5.60273L5.625 14.3527C5.63126 14.5254 5.57553 14.6749 5.45781 14.8013C5.34008 14.9277 5.1949 14.994 5.02227 15ZM8.125 14.375C8.125 14.5476 8.06398 14.6949 7.94194 14.8169C7.8199 14.939 7.67259 15 7.5 15C7.32741 15 7.1801 14.939 7.05806 14.8169C6.93602 14.6949 6.875 14.5476 6.875 14.375L6.875 5.625C6.875 5.45241 6.93602 5.3051 7.05806 5.18306C7.1801 5.06102 7.32741 5 7.5 5C7.67259 5 7.8199 5.06102 7.94194 5.18306C8.06398 5.3051 8.125 5.45241 8.125 5.625L8.125 14.375ZM9.375 2.5L5.625 2.5L5.625 1.5625C5.62401 1.4758 5.65417 1.40179 5.71548 1.34048C5.77679 1.27917 5.8508 1.24901 5.9375 1.25L9.0625 1.25C9.1492 1.24901 9.22321 1.27917 9.28452 1.34048C9.34583 1.40179 9.37599 1.4758 9.375 1.5625L9.375 2.5ZM10.625 14.3973C10.619 14.5655 10.5554 14.708 10.4343 14.8249C10.3131 14.9417 10.1683 15.0001 10 15L9.97734 15C9.80478 14.9939 9.65969 14.9276 9.54206 14.8012C9.42442 14.6748 9.36874 14.5253 9.375 14.3527L9.6875 5.60273C9.69365 5.43014 9.75992 5.285 9.8863 5.16731C10.0127 5.04962 10.1622 4.99385 10.3348 5C10.5074 5.00615 10.6525 5.07242 10.7702 5.1988C10.8879 5.32519 10.9436 5.47468 10.9375 5.64727L10.625 14.3973Z" fill-rule="nonzero" transform="matrix(1 0 0 1 2.5 1.25)" fill="rgb(156, 163, 175)"/>
	</g>
</svg>
