
<svg mexport="1" xmlns="http://www.w3.org/2000/svg" xmlns:xlink="http://www.w3.org/1999/xlink" width="16" height="16" viewBox="0 0 16 16">
	<defs>
		<clipPath id="clipPath0:0:0">
			<path d="M0 0L16 0L16 16L0 16L0 0Z" fill-rule="nonzero" transform="matrix(1 0 0 1 0 0)"/>
		</clipPath>
	</defs>
	<g clip-path="url(#clipPath0:0:0)">
		<path d="M14.25 11L12.75 11C12.5429 11 12.3661 10.9268 12.2197 10.7803C12.0732 10.6339 12 10.4571 12 10.25L12 0.75C12 0.542893 12.0732 0.366117 12.2197 0.21967C12.3661 0.0732233 12.5429 0 12.75 0L14.25 0C14.4571 0 14.6339 0.0732233 14.7803 0.21967C14.9268 0.366116 15 0.542893 15 0.75L15 10.25C15 10.4571 14.9268 10.6339 14.7803 10.7803C14.6339 10.9268 14.4571 11 14.25 11ZM10.25 11L8.75 11C8.54289 11 8.36612 10.9268 8.21967 10.7803C8.07322 10.6339 8 10.4571 8 10.25L8 3.25C8 3.04289 8.07322 2.86612 8.21967 2.71967C8.36612 2.57322 8.54289 2.5 8.75 2.5L10.25 2.5C10.4571 2.5 10.6339 2.57322 10.7803 2.71967C10.9268 2.86612 11 3.04289 11 3.25L11 10.25C11 10.4571 10.9268 10.6339 10.7803 10.7803C10.6339 10.9268 10.4571 11 10.25 11ZM6.25 11L4.75 11C4.54289 11 4.36612 10.9268 4.21967 10.7803C4.07322 10.6339 4 10.4571 4 10.25L4 5.25C4 5.04289 4.07322 4.86612 4.21967 4.71967C4.36612 4.57322 4.54289 4.5 4.75 4.5L6.25 4.5C6.45711 4.5 6.63388 4.57322 6.78033 4.71967C6.92678 4.86612 7 5.04289 7 5.25L7 10.25C7 10.4571 6.92678 10.6339 6.78033 10.7803C6.63388 10.9268 6.45711 11 6.25 11ZM2.25 11L0.75 11C0.542893 11 0.366116 10.9268 0.21967 10.7803C0.0732232 10.6339 -1.98682e-08 10.4571 0 10.25L0 7.25C0 7.04289 0.0732233 6.86612 0.21967 6.71967C0.366117 6.57322 0.542893 6.5 0.75 6.5L2.25 6.5C2.45711 6.5 2.63388 6.57322 2.78033 6.71967C2.92678 6.86612 3 7.04289 3 7.25L3 10.25C3 10.4571 2.92678 10.6339 2.78033 10.7803C2.63388 10.9268 2.45711 11 2.25 11Z" fill-rule="nonzero" transform="matrix(1 0 0 1 0.5 2.5)" fill="rgb(255, 255, 255)"/>
	</g>
</svg>
