
<svg mexport="1" xmlns="http://www.w3.org/2000/svg" xmlns:xlink="http://www.w3.org/1999/xlink" width="16" height="16" viewBox="0 0 16 16">
	<defs>
		<clipPath id="clipPath0:0:0">
			<path d="M0 0L16 0L16 16L0 16L0 0Z" fill-rule="nonzero" transform="matrix(1 0 0 1 0 0)"/>
		</clipPath>
	</defs>
	<g clip-path="url(#clipPath0:0:0)">
		<path d="M11.875 0L1.5 0C0.675 0 0 0.675 0 1.5L0 5.5C0 6.325 0.675 7 1.5 7L11.875 7C12.7 7 13.375 6.325 13.375 5.5L13.375 1.5C13.375 0.675 12.7 0 11.875 0ZM12.5 5.5C12.5 5.84375 12.2188 6.125 11.875 6.125L1.5 6.125C1.15625 6.125 0.875 5.84375 0.875 5.5L0.875 1.5C0.875 1.15625 1.15625 0.875 1.5 0.875L11.875 0.875C12.2188 0.875 12.5 1.15625 12.5 1.5L12.5 5.5ZM14 1.89375L14 5.10625C14.5 5.10625 15 4.24063 15 3.5C15 2.75938 14.5 1.89375 14 1.89375Z" fill-rule="nonzero" transform="matrix(1 0 0 1 0.5 4.5)" fill="rgb(255, 255, 255)"/>
		<path d="M10 0L0.375 0C0.16875 0 0 0.16875 0 0.375L0 3.625C0 3.83125 0.16875 4 0.375 4L10 4C10.2063 4 10.375 3.83125 10.375 3.625L10.375 0.375C10.375 0.16875 10.2063 0 10 0Z" fill-rule="nonzero" transform="matrix(1 0 0 1 2 6)" fill="rgb(255, 255, 255)"/>
	</g>
</svg>
