
<svg mexport="1" xmlns="http://www.w3.org/2000/svg" xmlns:xlink="http://www.w3.org/1999/xlink" width="16" height="16" viewBox="0 0 16 16">
	<defs>
		<clipPath id="clipPath0:0:0">
			<path d="M0 0L16 0L16 16L0 16L0 0Z" fill-rule="nonzero" transform="matrix(1 0 0 1 0 0)"/>
		</clipPath>
	</defs>
	<g clip-path="url(#clipPath0:0:0)">
		<path d="M7.00164 0C4.45476 0 1.90789 1.05 0.0797607 2.75938C-0.0233642 2.85313 -0.0264893 3.0125 0.0703858 3.11562L0.904761 3.9875C1.00164 4.09062 1.16414 4.09375 1.26726 3.99687C1.99539 3.32187 2.82664 2.78437 3.74539 2.40312C4.77664 1.97187 5.87351 1.75625 7.00476 1.75625C8.13601 1.75625 9.23289 1.975 10.2641 2.40312C11.1829 2.7875 12.0141 3.32187 12.7423 3.99687C12.8454 4.09375 13.0079 4.09062 13.1048 3.9875L13.9391 3.11562C14.036 3.01562 14.0329 2.85625 13.9298 2.75938C12.0954 1.05 9.54851 0 7.00164 0Z" fill-rule="nonzero" transform="matrix(1 0 0 1 0.998364 3)" fill="rgb(255, 255, 255)"/>
		<path d="M0.0757985 2.07188L0.969549 2.95625C1.06642 3.05 1.21955 3.05625 1.31955 2.96563C2.20392 2.18125 3.3383 1.75 4.53517 1.75C5.73205 1.75 6.86642 2.17813 7.7508 2.96563C7.8508 3.05625 8.00392 3.05 8.1008 2.95625L8.99455 2.07188C9.09767 1.96875 9.09455 1.80313 8.98517 1.70625C7.8133 0.646876 6.24767 0 4.53205 0C2.81642 0 1.2508 0.646875 0.0789242 1.70625C-0.0242009 1.80313 -0.0273259 1.96875 0.0757985 2.07188ZM4.5383 3.53125C3.80705 3.53125 3.14455 3.8375 2.68205 4.32813C2.5883 4.42813 2.59142 4.58125 2.6883 4.67813L4.35705 6.325C4.45705 6.425 4.61955 6.425 4.71955 6.325L6.3883 4.67813C6.48517 4.58125 6.4883 4.42813 6.39455 4.32813C5.93205 3.84063 5.26955 3.53125 4.5383 3.53125Z" fill-rule="nonzero" transform="matrix(1 0 0 1 3.4617 6.6)" fill="rgb(255, 255, 255)"/>
	</g>
</svg>
