
<svg mexport="1" xmlns="http://www.w3.org/2000/svg" xmlns:xlink="http://www.w3.org/1999/xlink" width="24" height="24" viewBox="0 0 24 24">
	<defs>
		<clipPath id="clipPath0:0:0">
			<path d="M0 0L24 0L24 24L0 24L0 0Z" fill-rule="nonzero" transform="matrix(1 0 0 1 0 0)"/>
		</clipPath>
	</defs>
	<g clip-path="url(#clipPath0:0:0)">
		<path d="M8.25 18C7.62868 18 7.09835 18.2197 6.65901 18.659C6.21967 19.0983 6 19.6287 6 20.25C6 20.8713 6.21967 21.4016 6.65901 21.841C7.09835 22.2803 7.62868 22.5 8.25 22.5C8.87132 22.5 9.40165 22.2803 9.84099 21.841C10.2803 21.4016 10.5 20.8713 10.5 20.25C10.5 19.6287 10.2803 19.0983 9.84099 18.659C9.40165 18.2197 8.87132 18 8.25 18ZM8.25 12C7.62868 12 7.09835 12.2197 6.65901 12.659C6.21967 13.0983 6 13.6287 6 14.25C6 14.8713 6.21967 15.4016 6.65901 15.841C7.09835 16.2803 7.62868 16.5 8.25 16.5C8.87132 16.5 9.40165 16.2803 9.84099 15.841C10.2803 15.4016 10.5 14.8713 10.5 14.25C10.5 13.6287 10.2803 13.0983 9.84099 12.659C9.40165 12.2197 8.87132 12 8.25 12ZM8.25 6C7.62868 6 7.09835 6.21967 6.65901 6.65901C6.21967 7.09835 6 7.62868 6 8.25C6 8.87132 6.21967 9.40165 6.65901 9.84099C7.09835 10.2803 7.62868 10.5 8.25 10.5C8.87132 10.5 9.40165 10.2803 9.84099 9.84099C10.2803 9.40165 10.5 8.87132 10.5 8.25C10.5 7.62868 10.2803 7.09835 9.84099 6.65901C9.40165 6.21967 8.87132 6 8.25 6ZM8.25 0C7.62868 0 7.09835 0.21967 6.65901 0.65901C6.21967 1.09835 6 1.62868 6 2.25C6 2.87132 6.21967 3.40165 6.65901 3.84099C7.09835 4.28033 7.62868 4.5 8.25 4.5C8.87132 4.5 9.40165 4.28033 9.84099 3.84099C10.2803 3.40165 10.5 2.87132 10.5 2.25C10.5 1.62868 10.2803 1.09835 9.84099 0.65901C9.40165 0.21967 8.87132 0 8.25 0ZM14.25 12C13.6287 12 13.0983 12.2197 12.659 12.659C12.2197 13.0983 12 13.6287 12 14.25C12 14.8713 12.2197 15.4016 12.659 15.841C13.0983 16.2803 13.6287 16.5 14.25 16.5C14.8713 16.5 15.4016 16.2803 15.841 15.841C16.2803 15.4016 16.5 14.8713 16.5 14.25C16.5 13.6287 16.2803 13.0983 15.841 12.659C15.4016 12.2197 14.8713 12 14.25 12ZM14.25 6C13.6287 6 13.0983 6.21967 12.659 6.65901C12.2197 7.09835 12 7.62868 12 8.25C12 8.87132 12.2197 9.40165 12.659 9.84099C13.0983 10.2803 13.6287 10.5 14.25 10.5C14.8713 10.5 15.4016 10.2803 15.841 9.84099C16.2803 9.40165 16.5 8.87132 16.5 8.25C16.5 7.62868 16.2803 7.09835 15.841 6.65901C15.4016 6.21967 14.8713 6 14.25 6ZM14.25 0C13.6287 0 13.0983 0.21967 12.659 0.65901C12.2197 1.09835 12 1.62868 12 2.25C12 2.87132 12.2197 3.40165 12.659 3.84099C13.0983 4.28033 13.6287 4.5 14.25 4.5C14.8713 4.5 15.4016 4.28033 15.841 3.84099C16.2803 3.40165 16.5 2.87132 16.5 2.25C16.5 1.62868 16.2803 1.09835 15.841 0.65901C15.4016 0.21967 14.8713 0 14.25 0ZM2.25 12C1.62868 12 1.09835 12.2197 0.659009 12.659C0.21967 13.0983 0 13.6287 0 14.25C0 14.8713 0.21967 15.4016 0.659009 15.841C1.09835 16.2803 1.62868 16.5 2.25 16.5C2.87132 16.5 3.40165 16.2803 3.84099 15.841C4.28033 15.4016 4.5 14.8713 4.5 14.25C4.5 13.6287 4.28033 13.0983 3.84099 12.659C3.40165 12.2197 2.87132 12 2.25 12ZM2.25 6C1.62868 6 1.09835 6.21967 0.659009 6.65901C0.21967 7.09835 0 7.62868 0 8.25C0 8.87132 0.21967 9.40165 0.659009 9.84099C1.09835 10.2803 1.62868 10.5 2.25 10.5C2.87132 10.5 3.40165 10.2803 3.84099 9.84099C4.28033 9.40165 4.5 8.87132 4.5 8.25C4.5 7.62868 4.28033 7.09835 3.84099 6.65901C3.40165 6.21967 2.87132 6 2.25 6ZM2.25 0C1.62868 0 1.09835 0.21967 0.659009 0.65901C0.21967 1.09835 0 1.62868 0 2.25C0 2.87132 0.21967 3.40165 0.659009 3.84099C1.09835 4.28033 1.62868 4.5 2.25 4.5C2.87132 4.5 3.40165 4.28033 3.84099 3.84099C4.28033 3.40165 4.5 2.87132 4.5 2.25C4.5 1.62868 4.28033 1.09835 3.84099 0.65901C3.40165 0.21967 2.87132 0 2.25 0Z" fill-rule="nonzero" transform="matrix(1 0 0 1 3.75 0.75)" fill="rgb(250, 144, 21)"/>
	</g>
</svg>
