
<svg mexport="1" xmlns="http://www.w3.org/2000/svg" xmlns:xlink="http://www.w3.org/1999/xlink" width="24" height="24" viewBox="0 0 24 24">
	<defs>
		<clipPath id="clipPath0:0:0">
			<path d="M0 0L24 0L24 24L0 24L0 0Z" fill-rule="nonzero" transform="matrix(1 0 0 1 0 0)"/>
		</clipPath>
	</defs>
	<g clip-path="url(#clipPath0:0:0)">
		<rect width="3.75" height="3.75" rx="0.375" ry="0.375" transform="matrix(1 0 0 1 15.75 15.75)" fill="rgb(55, 65, 81)"/>
		<rect width="3" height="3" rx="0.375" ry="0.375" transform="matrix(1 0 0 1 12.75 12.75)" fill="rgb(55, 65, 81)"/>
		<rect width="3" height="3" rx="0.375" ry="0.375" transform="matrix(1 0 0 1 19.5 19.5)" fill="rgb(55, 65, 81)"/>
		<rect width="2.25" height="2.25" rx="0.375" ry="0.375" transform="matrix(1 0 0 1 20.25 12.75)" fill="rgb(55, 65, 81)"/>
		<rect width="2.25" height="2.25" rx="0.375" ry="0.375" transform="matrix(1 0 0 1 12.75 20.25)" fill="rgb(55, 65, 81)"/>
		<path d="M19.5 0L12.75 0C12.3358 0 11.9822 0.146447 11.6893 0.43934C11.3964 0.732233 11.25 1.08579 11.25 1.5L11.25 8.25C11.25 8.66421 11.3964 9.01777 11.6893 9.31066C11.9822 9.60355 12.3358 9.75 12.75 9.75L19.5 9.75C19.9142 9.75 20.2678 9.60355 20.5607 9.31066C20.8535 9.01777 21 8.66421 21 8.25L21 1.5C21 1.08579 20.8535 0.732233 20.5607 0.43934C20.2678 0.146447 19.9142 0 19.5 0ZM18 6.375C18 6.47855 17.9634 6.56694 17.8902 6.64016C17.8169 6.71339 17.7286 6.75 17.625 6.75L14.625 6.75C14.5214 6.75 14.4331 6.71339 14.3598 6.64016C14.2866 6.56694 14.25 6.47855 14.25 6.375L14.25 3.375C14.25 3.27145 14.2866 3.18306 14.3598 3.10984C14.4331 3.03661 14.5214 3 14.625 3L17.625 3C17.7286 3 17.8169 3.03661 17.8902 3.10983C17.9634 3.18306 18 3.27145 18 3.375L18 6.375ZM8.25 0L1.5 0C1.08579 0 0.732233 0.146447 0.43934 0.43934C0.146447 0.732233 0 1.08579 0 1.5L0 8.25C-5.96046e-08 8.66421 0.146447 9.01777 0.43934 9.31066C0.732233 9.60355 1.08579 9.75 1.5 9.75L8.25 9.75C8.66421 9.75 9.01777 9.60355 9.31066 9.31066C9.60355 9.01777 9.75 8.66421 9.75 8.25L9.75 1.5C9.75 1.08579 9.60355 0.732233 9.31066 0.43934C9.01777 0.146447 8.66421 0 8.25 0ZM6.75 6.375C6.75 6.47855 6.71339 6.56694 6.64016 6.64016C6.56694 6.71339 6.47855 6.75 6.375 6.75L3.375 6.75C3.27145 6.75 3.18306 6.71339 3.10983 6.64016C3.03661 6.56694 3 6.47855 3 6.375L3 3.375C3 3.27145 3.03661 3.18306 3.10983 3.10984C3.18306 3.03661 3.27145 3 3.375 3L6.375 3C6.47855 3 6.56694 3.03661 6.64016 3.10983C6.71339 3.18306 6.75 3.27145 6.75 3.375L6.75 6.375ZM8.25 11.25L1.5 11.25C1.08579 11.25 0.732233 11.3964 0.43934 11.6893C0.146447 11.9822 0 12.3358 0 12.75L0 19.5C-5.96046e-08 19.9142 0.146447 20.2678 0.43934 20.5607C0.732233 20.8535 1.08579 21 1.5 21L8.25 21C8.66421 21 9.01777 20.8535 9.31066 20.5607C9.60355 20.2678 9.75 19.9142 9.75 19.5L9.75 12.75C9.75 12.3358 9.60355 11.9822 9.31066 11.6893C9.01777 11.3964 8.66421 11.25 8.25 11.25ZM6.75 17.625C6.75 17.7286 6.71339 17.8169 6.64016 17.8902C6.56694 17.9634 6.47855 18 6.375 18L3.375 18C3.27145 18 3.18306 17.9634 3.10983 17.8902C3.03661 17.8169 3 17.7286 3 17.625L3 14.625C3 14.5214 3.03661 14.4331 3.10983 14.3598C3.18306 14.2866 3.27145 14.25 3.375 14.25L6.375 14.25C6.47855 14.25 6.56694 14.2866 6.64016 14.3598C6.71339 14.4331 6.75 14.5214 6.75 14.625L6.75 17.625Z" fill-rule="nonzero" transform="matrix(1 0 0 1 1.5 1.5)" fill="rgb(55, 65, 81)"/>
	</g>
</svg>
