
<svg mexport="1" xmlns="http://www.w3.org/2000/svg" xmlns:xlink="http://www.w3.org/1999/xlink" width="24" height="24" viewBox="0 0 24 24">
	<defs>
		<clipPath id="clipPath0:0:0">
			<path d="M0 0L24 0L24 24L0 24L0 0Z" fill-rule="nonzero" transform="matrix(1 0 0 1 0 0)"/>
		</clipPath>
	</defs>
	<g clip-path="url(#clipPath0:0:0)">
		<path d="M19 18.6485C19 19.2008 18.5523 19.6485 18 19.6485L4 19.6485C3.44772 19.6485 3 19.2008 3 18.6485L3 9.64853L0 9.64853L10.3273 0.260055C10.7087 -0.0866849 11.2913 -0.0866849 11.6727 0.260055L22 9.64853L19 9.64853L19 18.6485ZM6.5 11.6485C6.5 14.1338 8.51472 16.1485 11 16.1485C13.4853 16.1485 15.5 14.1338 15.5 11.6485L13.5 11.6485C13.5 13.0292 12.3807 14.1485 11 14.1485C9.6193 14.1485 8.5 13.0292 8.5 11.6485L6.5 11.6485Z" fill-rule="nonzero" transform="matrix(1 0 0 1 1 1.35156)" fill="rgb(123, 129, 144)"/>
	</g>
</svg>
